<svg width="25" height="25" viewBox="0 0 25 25" fill="none" xmlns="http://www.w3.org/2000/svg">
<path d="M6.94444 21.875C5.83333 21.875 4.72222 20.7813 4.16667 20.3125C1.38889 18.125 0.555556 17.3438 0 16.875V23.4375C0 24.3003 0.621962 25 1.38889 25H12.5C13.2669 25 13.8889 24.3003 13.8889 23.4375V16.875C13.3333 17.3438 12.5 18.125 9.72222 20.3125C9.16667 20.7813 8.05556 21.875 6.94444 21.875ZM12.5 12.5H1.38889C0.621962 12.5 0 13.1997 0 14.0625V14.8438C1.11111 15.7813 0.972222 15.7812 5 19.0625C5.41667 19.375 6.25 20.3125 6.94444 20.3125C7.63889 20.3125 8.47222 19.375 8.88889 19.2188C12.9167 15.9375 12.7778 15.9375 13.8889 15V14.0625C13.8889 13.1997 13.2669 12.5 12.5 12.5ZM23.6111 7.8125H9.72222C8.95529 7.8125 8.33333 8.51221 8.33333 9.375V10.9375H12.5C13.9414 10.9375 15.1298 12.1787 15.2652 13.7607L15.2778 13.75V20.3125H23.6111C24.378 20.3125 25 19.6128 25 18.75V9.375C25 8.51221 24.378 7.8125 23.6111 7.8125ZM22.2222 14.0625H19.4444V10.9375H22.2222V14.0625ZM6.94444 9.375C6.94444 7.65186 8.19054 6.25 9.72222 6.25H19.4444V1.5625C19.4444 0.699707 18.8225 0 18.0556 0H4.16667C3.39974 0 2.77778 0.699707 2.77778 1.5625V10.9375H6.94444V9.375Z" fill="black"/>
</svg>
