<svg width="25" height="25" viewBox="0 0 25 25" fill="none" xmlns="http://www.w3.org/2000/svg">
<path d="M12.5 0C9.4796 0 7.03125 2.75439 7.03125 6.15234C7.03125 8.89941 10.6055 13.9062 11.9748 15.7236C12.2522 16.0918 12.7483 16.0918 13.0252 15.7236C14.3945 13.9062 17.9687 8.89941 17.9687 6.15234C17.9687 2.75439 15.5204 0 12.5 0ZM12.5 8.20312C11.4931 8.20312 10.6771 7.28516 10.6771 6.15234C10.6771 5.01953 11.4931 4.10156 12.5 4.10156C13.5069 4.10156 14.3229 5.01953 14.3229 6.15234C14.3229 7.28516 13.5069 8.20312 12.5 8.20312ZM0.873264 10.5444C0.615529 10.6604 0.394588 10.8606 0.238936 11.1192C0.083285 11.3777 6.17278e-05 11.6828 0 11.9951L0 24.2178C0 24.7705 0.496094 25.1484 0.952257 24.9434L6.94444 21.875V10.4941C6.56076 9.71387 6.24696 8.9541 6.02214 8.22754L0.873264 10.5444ZM12.5 17.562C11.8893 17.562 11.3116 17.2603 10.9154 16.7339C10.0621 15.6011 9.15451 14.311 8.33333 12.9878V21.8745L16.6667 24.9995V12.9883C15.8455 14.311 14.9384 15.6016 14.0846 16.7344C13.6884 17.2603 13.1107 17.562 12.5 17.562ZM24.0477 7.86914L18.0556 10.9375V25L24.1267 22.2681C24.3845 22.1521 24.6055 21.952 24.7611 21.6934C24.9168 21.4348 25 21.1297 25 20.8174V8.59473C25 8.04199 24.5039 7.66406 24.0477 7.86914Z" fill="black"/>
</svg>
