<svg width="25" height="30" viewBox="0 0 25 30" fill="none" xmlns="http://www.w3.org/2000/svg">
<path d="M11.2154 29.3947C1.75586 17.0526 0 15.7859 0 11.25C0 5.03678 5.59642 0 12.5 0C19.4036 0 25 5.03678 25 11.25C25 15.7859 23.2441 17.0526 13.7846 29.3947C13.1639 30.2018 11.8361 30.2017 11.2154 29.3947ZM12.5 15.9375C15.3765 15.9375 17.7083 13.8388 17.7083 11.25C17.7083 8.66115 15.3765 6.5625 12.5 6.5625C9.6235 6.5625 7.29167 8.66115 7.29167 11.25C7.29167 13.8388 9.6235 15.9375 12.5 15.9375Z" fill="black"/>
</svg>
